<?xml version="1.0" standalone="no"?>
<!DOCTYPE svg PUBLIC "-//W3C//DTD SVG 20010904//EN"
 "http://www.w3.org/TR/2001/REC-SVG-20010904/DTD/svg10.dtd">
<svg version="1.0" xmlns="http://www.w3.org/2000/svg"
 width="512.000000pt" height="512.000000pt" viewBox="0 0 512.000000 512.000000"
 preserveAspectRatio="xMidYMid meet">
<metadata>
Created by potrace 1.14, written by Peter Selinger 2001-2017
</metadata>
<g transform="translate(0.000000,512.000000) scale(0.100000,-0.100000)"
fill="#000000" stroke="none">
<path d="M5109 5006 c-4 -4 -184 -57 -784 -231 -418 -121 -1319 -382 -1395
-405 -73 -21 -299 -87 -435 -126 -49 -14 -101 -30 -115 -34 -14 -5 -104 -31
-200 -59 -96 -28 -409 -119 -695 -202 -286 -83 -533 -155 -550 -159 -37 -10
-188 -54 -275 -80 -103 -31 -340 -100 -400 -116 -177 -47 -215 -68 -245 -130
-20 -43 -15 -109 11 -149 9 -13 48 -50 87 -81 40 -31 77 -62 82 -68 6 -7 20
-19 32 -27 11 -8 41 -31 65 -51 23 -20 124 -103 223 -184 99 -80 194 -158 212
-173 18 -14 55 -44 82 -66 28 -22 53 -51 56 -65 4 -14 10 -43 15 -65 5 -22 30
-137 55 -255 25 -118 50 -231 55 -250 5 -19 11 -48 13 -65 3 -16 11 -54 17
-83 7 -30 13 -59 14 -65 2 -7 6 -23 9 -37 5 -20 50 -226 112 -516 2 -11 18
-84 35 -164 17 -80 40 -188 51 -240 11 -52 24 -111 29 -130 5 -19 12 -48 14
-65 14 -75 116 -538 120 -543 4 -4 1102 681 1131 706 6 5 33 22 60 38 62 36
146 90 162 104 7 5 16 10 20 11 4 0 44 24 88 53 l80 53 130 -106 c72 -57 132
-107 135 -110 3 -4 43 -37 90 -74 47 -38 103 -83 125 -102 248 -204 394 -321
422 -337 66 -40 164 -11 205 59 13 22 106 400 143 586 2 10 7 27 10 37 3 10 8
27 10 37 10 47 54 240 80 353 2 8 15 67 30 130 14 63 37 160 50 215 13 55 45
192 71 305 25 113 73 320 105 460 33 140 62 266 65 279 2 12 21 91 40 175 20
83 38 162 40 176 3 14 14 61 25 105 10 44 21 90 24 103 3 12 7 30 9 40 11 48
57 249 60 267 3 11 16 67 30 125 14 58 28 120 31 139 3 19 8 37 10 41 2 3 6
18 9 33 4 15 9 39 12 55 3 15 23 104 45 197 22 94 48 208 59 255 11 47 38 162
60 255 50 216 53 235 39 221z"/>
</g>
</svg>
